  0
SECTION
  2
BLOCKS
  0
ENDSEC
  0
SECTION
  2
ENTITIES
  0
LINE
  8
0
 10
-25
 11
-24.905
 20
0
 21
0.478
  0
LINE
  8
0
 10
-24.905
 11
-24.634
 20
0.478
 21
0.884
  0
LINE
  8
0
 10
-24.634
 11
-24.228
 20
0.884
 21
1.155
  0
LINE
  8
0
 10
-24.228
 11
-23.75
 20
1.155
 21
1.25
  0
LINE
  8
0
 10
-23.75
 11
-23.272
 20
1.25
 21
1.155
  0
LINE
  8
0
 10
-23.272
 11
-22.866
 20
1.155
 21
0.884
  0
LINE
  8
0
 10
-22.866
 11
-22.595
 20
0.884
 21
0.478
  0
LINE
  8
0
 10
-22.595
 11
-22.5
 20
0.478
 21
0
  0
LINE
  8
0
 10
-22.5
 11
-22.595
 20
0
 21
-0.478
  0
LINE
  8
0
 10
-22.595
 11
-22.866
 20
-0.478
 21
-0.884
  0
LINE
  8
0
 10
-22.866
 11
-23.272
 20
-0.884
 21
-1.155
  0
LINE
  8
0
 10
-23.272
 11
-23.75
 20
-1.155
 21
-1.25
  0
LINE
  8
0
 10
-23.75
 11
-24.228
 20
-1.25
 21
-1.155
  0
LINE
  8
0
 10
-24.228
 11
-24.634
 20
-1.155
 21
-0.884
  0
LINE
  8
0
 10
-24.634
 11
-24.905
 20
-0.884
 21
-0.478
  0
LINE
  8
0
 10
-24.905
 11
-25
 20
-0.478
 21
0
  0
LINE
  8
0
 10
-18.75
 11
-18.75
 20
7
 21
9
  0
LINE
  8
0
 10
-18.75
 11
-10.75
 20
9
 21
9
  0
LINE
  8
0
 10
-10.75
 11
-10.75
 20
9
 21
7
  0
LINE
  8
0
 10
-10.75
 11
-18.75
 20
7
 21
7
  0
LINE
  8
0
 10
-13.75
 11
-13.75
 20
-5
 21
5
  0
LINE
  8
0
 10
-13.75
 11
-11.75
 20
5
 21
5
  0
LINE
  8
0
 10
-11.75
 11
-11.75
 20
5
 21
-5
  0
LINE
  8
0
 10
-11.75
 11
-13.75
 20
-5
 21
-5
  0
LINE
  8
0
 10
-3.25
 11
-3.25
 20
-7
 21
-5
  0
LINE
  8
0
 10
-3.25
 11
3.75
 20
-5
 21
-5
  0
LINE
  8
0
 10
3.75
 11
3.75
 20
-5
 21
-7
  0
LINE
  8
0
 10
3.75
 11
-3.25
 20
-7
 21
-7
  0
LINE
  8
0
 10
13.25
 11
13.25
 20
-8
 21
-3
  0
LINE
  8
0
 10
13.25
 11
15.25
 20
-3
 21
-3
  0
LINE
  8
0
 10
15.25
 11
15.25
 20
-3
 21
-8
  0
LINE
  8
0
 10
15.25
 11
13.25
 20
-8
 21
-8
  0
LINE
  8
0
 10
-27.5
 11
-27.5
 20
-7
 21
7
  0
LINE
  8
0
 10
-27.5
 11
-20
 20
7
 21
7
  0
LINE
  8
0
 10
-20
 11
-20
 20
7
 21
25
  0
LINE
  8
0
 10
-20
 11
20
 20
25
 21
25
  0
LINE
  8
0
 10
20
 11
20
 20
25
 21
7
  0
LINE
  8
0
 10
20
 11
27.5
 20
7
 21
7
  0
LINE
  8
0
 10
27.5
 11
27.5
 20
7
 21
-7
  0
LINE
  8
0
 10
27.5
 11
20
 20
-7
 21
-7
  0
LINE
  8
0
 10
20
 11
20
 20
-7
 21
-25
  0
LINE
  8
0
 10
20
 11
-20
 20
-25
 21
-25
  0
LINE
  8
0
 10
-20
 11
-20
 20
-25
 21
-7
  0
LINE
  8
0
 10
-20
 11
-27.5
 20
-7
 21
-7
  0
LINE
  8
0
 10
22.5
 11
22.595
 20
0
 21
0.478
  0
LINE
  8
0
 10
22.595
 11
22.866
 20
0.478
 21
0.884
  0
LINE
  8
0
 10
22.866
 11
23.272
 20
0.884
 21
1.155
  0
LINE
  8
0
 10
23.272
 11
23.75
 20
1.155
 21
1.25
  0
LINE
  8
0
 10
23.75
 11
24.228
 20
1.25
 21
1.155
  0
LINE
  8
0
 10
24.228
 11
24.634
 20
1.155
 21
0.884
  0
LINE
  8
0
 10
24.634
 11
24.905
 20
0.884
 21
0.478
  0
LINE
  8
0
 10
24.905
 11
25
 20
0.478
 21
0
  0
LINE
  8
0
 10
25
 11
24.905
 20
0
 21
-0.478
  0
LINE
  8
0
 10
24.905
 11
24.634
 20
-0.478
 21
-0.884
  0
LINE
  8
0
 10
24.634
 11
24.228
 20
-0.884
 21
-1.155
  0
LINE
  8
0
 10
24.228
 11
23.75
 20
-1.155
 21
-1.25
  0
LINE
  8
0
 10
23.75
 11
23.272
 20
-1.25
 21
-1.155
  0
LINE
  8
0
 10
23.272
 11
22.866
 20
-1.155
 21
-0.884
  0
LINE
  8
0
 10
22.866
 11
22.595
 20
-0.884
 21
-0.478
  0
LINE
  8
0
 10
22.595
 11
22.5
 20
-0.478
 21
0
  0
ENDSEC
  0
SECTION
  2
OBJECTS
  0
DICTIONARY
  0
ENDSEC
  0
EOF
